<svg xmlns="http://www.w3.org/2000/svg" viewBox="0 0 256 256" width="256" height="256">
  <defs>
    <linearGradient id="bgGradP" x1="0%" y1="0%" x2="100%" y2="100%">
      <stop offset="0%" stop-color="#121829" />
      <stop offset="100%" stop-color="#050a14" />
    </linearGradient>
    <linearGradient id="cyanGrad" x1="0%" y1="0%" x2="100%" y2="100%">
      <stop offset="0%" stop-color="#00e5ff" />
      <stop offset="100%" stop-color="#3b82f6" />
    </linearGradient>
    <linearGradient id="skinGradP" x1="0%" y1="0%" x2="0%" y2="100%">
      <stop offset="0%" stop-color="#f5d0b0" />
      <stop offset="100%" stop-color="#dfad84" />
    </linearGradient>
  </defs>

  <rect width="256" height="256" rx="48" fill="url(#bgGradP)" />
  <circle cx="128" cy="128" r="110" fill="none" stroke="url(#cyanGrad)" stroke-width="3" opacity="0.4" />

  <!-- Jersey -->
  <path d="M50 240 C56 195, 80 175, 104 168 L114 190 L142 190 L152 168 C176 175, 200 195, 206 240 Z" fill="#1e293b" />
  <path d="M50 240 C56 195, 80 175, 104 168 L114 190 L142 190 L152 168 C176 175, 200 195, 206 240 Z" fill="none" stroke="url(#cyanGrad)" stroke-width="2" opacity="0.7" />
  
  <path d="M104 168 L128 198 L152 168" fill="none" stroke="url(#cyanGrad)" stroke-width="3.5" stroke-linecap="round" />

  <!-- Neck -->
  <path d="M112 145 L112 175 C112 182, 144 182, 144 175 L144 145 Z" fill="url(#skinGradP)" />

  <!-- Head -->
  <ellipse cx="128" cy="120" rx="42" ry="46" fill="url(#skinGradP)" />

  <!-- Ears -->
  <circle cx="85" cy="122" r="9" fill="url(#skinGradP)" />
  <circle cx="171" cy="122" r="9" fill="url(#skinGradP)" />

  <!-- Hair -->
  <path d="M86 102 C84 70, 105 52, 128 52 C151 52, 172 70, 170 102 C160 92, 140 85, 128 85 C116 85, 96 92, 86 102 Z" fill="#1c1917" />

  <!-- Eyes -->
  <ellipse cx="112" cy="118" rx="4.5" ry="3.5" fill="#0f172a" />
  <ellipse cx="144" cy="118" rx="4.5" ry="3.5" fill="#0f172a" />
  <circle cx="113.5" cy="117" r="1.5" fill="#ffffff" />
  <circle cx="145.5" cy="117" r="1.5" fill="#ffffff" />

  <!-- Eyebrows -->
  <path d="M104 110 Q112 107 120 110" fill="none" stroke="#1c1917" stroke-width="2.5" stroke-linecap="round" />
  <path d="M136 110 Q144 107 152 110" fill="none" stroke="#1c1917" stroke-width="2.5" stroke-linecap="round" />

  <!-- Nose -->
  <path d="M128 118 L126 127 L130 129" fill="none" stroke="#c28c61" stroke-width="2" stroke-linecap="round" stroke-linejoin="round" />

  <!-- Smile -->
  <path d="M118 140 Q128 147 138 140" fill="none" stroke="#9a623a" stroke-width="2" stroke-linecap="round" />
</svg>
